<svg xmlns="http://www.w3.org/2000/svg" xmlns:svg="http://www.w3.org/2000/svg" id="svg8" width="530.972" height="166.281" version="1.1" viewBox="0 0 140.486 43.995"><defs id="defs2"><marker id="marker1352" orient="auto" refX="0" refY="0" style="overflow:visible"><path id="path1350" d="M 0,0 5,-5 -12.5,0 5,5 Z" transform="matrix(-0.4,0,0,-0.4,-4,0)" style="fill:#000;fill-opacity:1;fill-rule:evenodd;stroke:#000;stroke-width:1.00000003pt;stroke-opacity:1"/></marker><marker id="Arrow1Lend" orient="auto" refX="0" refY="0" style="overflow:visible"><path id="path981" d="M 0,0 5,-5 -12.5,0 5,5 Z" transform="matrix(-0.8,0,0,-0.8,-10,0)" style="fill:#000;fill-opacity:1;fill-rule:evenodd;stroke:#000;stroke-width:1.00000003pt;stroke-opacity:1"/></marker></defs><metadata id="metadata5"/><g id="layer1" transform="translate(-26.888129,-163.46265)"><path style="fill:none;stroke:#000;stroke-width:.80000001;stroke-linecap:round;stroke-linejoin:round;stroke-miterlimit:4;stroke-dasharray:none;stroke-opacity:1" id="path819" d="M 28.597838,196.93499 66.577654,170.44104"/><path style="fill:none;stroke:#000;stroke-width:.80000001;stroke-linecap:round;stroke-linejoin:round;stroke-miterlimit:4;stroke-dasharray:none;stroke-opacity:1" id="path821" d="M 100.22607,195.33138 66.577654,170.44104"/><path style="fill:none;fill-opacity:1;stroke:#000;stroke-width:1.39999998;stroke-linecap:round;stroke-linejoin:round;stroke-miterlimit:4;stroke-dasharray:11.2,1.4;stroke-dashoffset:0;stroke-opacity:1" id="path823" d="m 28.999438,197.21847 37.283404,8.53642"/><path style="fill:none;fill-opacity:1;stroke:#000;stroke-width:1.39999998;stroke-linecap:round;stroke-linejoin:round;stroke-miterlimit:4;stroke-dasharray:none;stroke-opacity:1" id="path825" d="M 100.22607,195.33138 66.282842,205.75489"/><path style="fill:none;stroke:#000;stroke-width:.80000001;stroke-linecap:round;stroke-linejoin:round;stroke-miterlimit:4;stroke-dasharray:none;stroke-opacity:1" id="path833" d="m 122.94398,183.03698 -22.71791,12.2944"/><path style="fill:none;fill-opacity:1;stroke:#000;stroke-width:1.39999998;stroke-linecap:round;stroke-linejoin:round;stroke-miterlimit:4;stroke-dasharray:none;stroke-opacity:1" id="path835" d="m 122.94398,201.21131 -22.71791,-5.87993"/><path style="fill:none;stroke:#000;stroke-width:.80000001;stroke-linecap:round;stroke-linejoin:round;stroke-miterlimit:4;stroke-dasharray:4.79999998,.8;stroke-dashoffset:0;stroke-opacity:1" id="path837" d="m 122.94398,183.03698 42.22859,1.60361"/><path style="fill:none;fill-opacity:1;stroke:#000;stroke-width:1.39999998;stroke-linecap:round;stroke-linejoin:round;stroke-miterlimit:4;stroke-dasharray:none;stroke-opacity:1" id="path839" d="M 163.03441,201.21131 H 122.94398"/><path style="fill:none;stroke:#000;stroke-width:.80000001;stroke-linecap:round;stroke-linejoin:round;stroke-miterlimit:4;stroke-dasharray:.8,.8;stroke-dashoffset:0;stroke-opacity:1" id="path847" d="m 122.94398,183.03698 5.61266,-8.8199 5.07812,2.13816 6.41447,-8.81989 c 3.37427,4.22138 7.25744,3.25927 4.54358,9.08716 6.50694,2.90434 6.57881,3.6835 7.61718,-2.80633 -0.57366,-2.99981 -2.54965,1.73178 -9.75533,-7.34991 l 17.10525,-1.60362 6.41447,9.35443 -0.80181,10.42351"/><path style="fill:none;stroke:#000;stroke-width:.80000001;stroke-linecap:butt;stroke-linejoin:miter;stroke-miterlimit:4;stroke-dasharray:4.8,1.6;stroke-dashoffset:0;stroke-opacity:1" id="path889" d="m 28.597838,196.93499 30.095364,-1.77153 5.746296,-9.6217 2.138156,-15.10072"/></g></svg>