<svg xmlns="http://www.w3.org/2000/svg" xmlns:svg="http://www.w3.org/2000/svg" id="svg8" width="537.378" height="211.422" version="1.1" viewBox="0 0 142.181 55.939"><defs id="defs2"><marker id="marker1194" orient="auto" refX="0" refY="0" style="overflow:visible"><path id="path1192" d="M 0,0 5,-5 -12.5,0 5,5 Z" transform="matrix(-0.4,0,0,-0.4,-4,0)" style="fill:#000;fill-opacity:1;fill-rule:evenodd;stroke:#000;stroke-width:1.00000003pt;stroke-opacity:1"/></marker><marker id="marker1188" orient="auto" refX="0" refY="0" style="overflow:visible"><path id="path1186" d="M 0,0 5,-5 -12.5,0 5,5 Z" transform="matrix(-0.4,0,0,-0.4,-4,0)" style="fill:#000;fill-opacity:1;fill-rule:evenodd;stroke:#000;stroke-width:1.00000003pt;stroke-opacity:1"/></marker><marker id="Arrow2Send" orient="auto" refX="0" refY="0" style="overflow:visible"><path id="path944" d="M 8.7185878,4.0337352 -2.2072895,0.01601326 8.7185884,-4.0017078 c -1.7454984,2.3720609 -1.7354408,5.6174519 -6e-7,8.035443 z" transform="matrix(-0.3,0,0,-0.3,0.69,0)" style="fill:#000;fill-opacity:1;fill-rule:evenodd;stroke:#000;stroke-width:.625;stroke-linejoin:round;stroke-opacity:1"/></marker><marker id="Arrow1Mend" orient="auto" refX="0" refY="0" style="overflow:visible"><path id="path920" d="M 0,0 5,-5 -12.5,0 5,5 Z" transform="matrix(-0.4,0,0,-0.4,-4,0)" style="fill:#000;fill-opacity:1;fill-rule:evenodd;stroke:#000;stroke-width:1.00000003pt;stroke-opacity:1"/></marker><marker id="Arrow2Mend" orient="auto" refX="0" refY="0" style="overflow:visible"><path id="path938" d="M 8.7185878,4.0337352 -2.2072895,0.01601326 8.7185884,-4.0017078 c -1.7454984,2.3720609 -1.7354408,5.6174519 -6e-7,8.035443 z" transform="scale(-0.6)" style="fill:#000;fill-opacity:1;fill-rule:evenodd;stroke:#000;stroke-width:.625;stroke-linejoin:round;stroke-opacity:1"/></marker><marker id="marker1174" orient="auto" refX="0" refY="0" style="overflow:visible"><path id="path914" d="M 0,0 5,-5 -12.5,0 5,5 Z" transform="matrix(-0.8,0,0,-0.8,-10,0)" style="fill:#000;fill-opacity:1;fill-rule:evenodd;stroke:#000;stroke-width:1.00000003pt;stroke-opacity:1"/></marker><marker id="marker1352" orient="auto" refX="0" refY="0" style="overflow:visible"><path id="path1350" d="M 0,0 5,-5 -12.5,0 5,5 Z" transform="matrix(-0.4,0,0,-0.4,-4,0)" style="fill:#000;fill-opacity:1;fill-rule:evenodd;stroke:#000;stroke-width:1.00000003pt;stroke-opacity:1"/></marker><marker id="Arrow1Lend" orient="auto" refX="0" refY="0" style="overflow:visible"><path id="path981" d="M 0,0 5,-5 -12.5,0 5,5 Z" transform="matrix(-0.8,0,0,-0.8,-10,0)" style="fill:#000;fill-opacity:1;fill-rule:evenodd;stroke:#000;stroke-width:1.00000003pt;stroke-opacity:1"/></marker></defs><metadata id="metadata5"/><g id="layer1" transform="translate(-26.193158,-137.06249)"><path style="fill:none;stroke:#000;stroke-width:.80000001;stroke-linecap:round;stroke-linejoin:round;stroke-miterlimit:4;stroke-dasharray:none;stroke-opacity:1" id="path819" d="M 28.597838,171.53483 66.577654,145.04088"/><path style="fill:none;stroke:#000;stroke-width:.80000001;stroke-linecap:round;stroke-linejoin:round;stroke-miterlimit:4;stroke-dasharray:none;stroke-opacity:1" id="path821" d="M 100.22607,169.93122 66.577654,145.04088"/><path style="fill:none;fill-opacity:1;stroke:#0000f6;stroke-width:1.39999998;stroke-linecap:round;stroke-linejoin:round;stroke-miterlimit:4;stroke-dasharray:11.2,1.4;stroke-dashoffset:0;stroke-opacity:1" id="path823" d="m 28.999438,171.81831 37.283404,8.53642"/><path style="fill:none;fill-opacity:1;stroke:#0000f6;stroke-width:1.39999998;stroke-linecap:round;stroke-linejoin:round;stroke-miterlimit:4;stroke-dasharray:none;stroke-opacity:1" id="path825" d="M 100.22607,169.93122 66.282842,180.35473"/><path style="fill:none;stroke:#000;stroke-width:.80000001;stroke-linecap:round;stroke-linejoin:round;stroke-miterlimit:4;stroke-dasharray:none;stroke-opacity:1" id="path833" d="m 122.94398,157.63682 -22.71791,12.2944"/><path style="fill:none;fill-opacity:1;stroke:#0000f6;stroke-width:1.39999998;stroke-linecap:round;stroke-linejoin:round;stroke-miterlimit:4;stroke-dasharray:none;stroke-opacity:1" id="path835" d="m 122.94398,175.81115 -22.71791,-5.87993"/><path style="fill:none;stroke:#000;stroke-width:.80000001;stroke-linecap:round;stroke-linejoin:round;stroke-miterlimit:4;stroke-dasharray:4.79999998,.8;stroke-dashoffset:0;stroke-opacity:1" id="path837" d="m 122.94398,157.63682 42.22859,1.60361"/><path style="fill:none;fill-opacity:1;stroke:#0000f6;stroke-width:1.39999998;stroke-linecap:round;stroke-linejoin:round;stroke-miterlimit:4;stroke-dasharray:none;stroke-opacity:1" id="path839" d="M 163.03441,175.81115 H 122.94398"/><path style="fill:none;stroke:#000;stroke-width:.80000001;stroke-linecap:round;stroke-linejoin:round;stroke-miterlimit:4;stroke-dasharray:.8,.8;stroke-dashoffset:0;stroke-opacity:1" id="path847" d="m 122.94398,157.63682 5.61266,-8.8199 5.07812,2.13816 6.41447,-8.81989 c 3.37427,4.22138 7.25744,3.25927 4.54358,9.08716 6.50694,2.90434 6.57881,3.6835 7.61718,-2.80633 -0.57366,-2.99981 -2.54965,1.73178 -9.75533,-7.34991 l 17.10525,-1.60362 6.41447,9.35443 -0.80181,10.42351"/><path style="fill:none;stroke:#000;stroke-width:.80000001;stroke-linecap:butt;stroke-linejoin:miter;stroke-miterlimit:4;stroke-dasharray:4.8,1.6;stroke-dashoffset:0;stroke-opacity:1" id="path889" d="m 28.597838,171.53483 30.095364,-1.77153 5.746296,-9.6217 2.138156,-15.10072"/><circle style="fill:red;fill-opacity:1;stroke:none;stroke-width:2.79999995;stroke-linecap:round;stroke-linejoin:round;stroke-miterlimit:4;stroke-dasharray:none;stroke-opacity:1" id="path906-6" cx="162.393" cy="184.968" r="2"/><path style="fill:none;stroke:#000;stroke-width:1.00000003;stroke-linecap:butt;stroke-linejoin:miter;stroke-miterlimit:4;stroke-dasharray:2.00000006,1.00000003;stroke-opacity:1;marker-end:url(#Arrow2Mend);stroke-dashoffset:0" id="path909" d="m 30.289915,185.15726 17.575892,-0.37798"/><circle style="fill:red;fill-opacity:1;stroke:none;stroke-width:2.79999995;stroke-linecap:round;stroke-linejoin:round;stroke-miterlimit:4;stroke-dasharray:none;stroke-opacity:1" id="path906" cx="30.29" cy="185.157" r="2"/><path style="fill:none;stroke:#000;stroke-width:1;stroke-linecap:butt;stroke-linejoin:miter;stroke-miterlimit:4;stroke-dasharray:none;stroke-opacity:1;marker-end:url(#marker1188)" id="path1180" d="m 99.08158,182.51143 19.0878,7.74851"/><circle style="fill:red;fill-opacity:1;stroke:none;stroke-width:2.79999995;stroke-linecap:round;stroke-linejoin:round;stroke-miterlimit:4;stroke-dasharray:none;stroke-opacity:1" id="path906-3" cx="98.893" cy="182.511" r="2"/><path style="fill:none;stroke:#000;stroke-width:1;stroke-linecap:butt;stroke-linejoin:miter;stroke-miterlimit:4;stroke-dasharray:none;stroke-opacity:1;marker-end:url(#marker1194)" id="path1190" d="m 162.39378,185.14085 -17.50616,0.13364"/></g></svg>