<svg xmlns="http://www.w3.org/2000/svg" xmlns:svg="http://www.w3.org/2000/svg" id="svg8" width="537.378" height="470.336" version="1.1" viewBox="0 0 142.181 124.443"><defs id="defs2"><marker style="overflow:visible" id="marker1401" orient="auto" refX="0" refY="0"><path style="fill:#0000f6;fill-opacity:1;fill-rule:evenodd;stroke:#0000f6;stroke-width:1.00000003pt;stroke-opacity:1" id="path1399" d="M 0,0 5,-5 -12.5,0 5,5 Z" transform="matrix(-0.2,0,0,-0.2,-1.2,0)"/></marker><marker style="overflow:visible" id="marker1395" orient="auto" refX="0" refY="0"><path style="fill:#000;fill-opacity:1;fill-rule:evenodd;stroke:#000;stroke-width:1.00000003pt;stroke-opacity:1" id="path1393" d="M 0,0 5,-5 -12.5,0 5,5 Z" transform="matrix(0.2,0,0,0.2,1.2,0)"/></marker><marker style="overflow:visible" id="marker1348" orient="auto" refX="0" refY="0"><path style="fill:#000;fill-opacity:1;fill-rule:evenodd;stroke:#000;stroke-width:1.00000003pt;stroke-opacity:1" id="path1346" d="M 0,0 5,-5 -12.5,0 5,5 Z" transform="matrix(0.2,0,0,0.2,1.2,0)"/></marker><marker style="overflow:visible" id="Arrow1Sstart" orient="auto" refX="0" refY="0"><path style="fill:#0000f6;fill-opacity:1;fill-rule:evenodd;stroke:#0000f6;stroke-width:1.00000003pt;stroke-opacity:1" id="path923" d="M 0,0 5,-5 -12.5,0 5,5 Z" transform="matrix(0.2,0,0,0.2,1.2,0)"/></marker><marker style="overflow:visible" id="marker1330" orient="auto" refX="0" refY="0"><path style="fill:#000;fill-opacity:1;fill-rule:evenodd;stroke:#000;stroke-width:1.00000003pt;stroke-opacity:1" id="path1328" d="M 0,0 5,-5 -12.5,0 5,5 Z" transform="matrix(-0.2,0,0,-0.2,-1.2,0)"/></marker><marker style="overflow:visible" id="marker1326" orient="auto" refX="0" refY="0"><path style="fill:#000;fill-opacity:1;fill-rule:evenodd;stroke:#000;stroke-width:1.00000003pt;stroke-opacity:1" id="path1324" d="M 0,0 5,-5 -12.5,0 5,5 Z" transform="matrix(-0.2,0,0,-0.2,-1.2,0)"/></marker><marker style="overflow:visible" id="Arrow1Send" orient="auto" refX="0" refY="0"><path style="fill:#0000f6;fill-opacity:1;fill-rule:evenodd;stroke:#0000f6;stroke-width:1.00000003pt;stroke-opacity:1" id="path926" d="M 0,0 5,-5 -12.5,0 5,5 Z" transform="matrix(-0.2,0,0,-0.2,-1.2,0)"/></marker><marker style="overflow:visible" id="marker1194" orient="auto" refX="0" refY="0"><path style="fill:#000;fill-opacity:1;fill-rule:evenodd;stroke:#000;stroke-width:1.00000003pt;stroke-opacity:1" id="path1192" d="M 0,0 5,-5 -12.5,0 5,5 Z" transform="matrix(-0.4,0,0,-0.4,-4,0)"/></marker><marker style="overflow:visible" id="marker1188" orient="auto" refX="0" refY="0"><path style="fill:#000;fill-opacity:1;fill-rule:evenodd;stroke:#000;stroke-width:1.00000003pt;stroke-opacity:1" id="path1186" d="M 0,0 5,-5 -12.5,0 5,5 Z" transform="matrix(-0.4,0,0,-0.4,-4,0)"/></marker><marker style="overflow:visible" id="Arrow2Send" orient="auto" refX="0" refY="0"><path style="fill:#000;fill-opacity:1;fill-rule:evenodd;stroke:#000;stroke-width:.625;stroke-linejoin:round;stroke-opacity:1" id="path944" d="M 8.7185878,4.0337352 -2.2072895,0.01601326 8.7185884,-4.0017078 c -1.7454984,2.3720609 -1.7354408,5.6174519 -6e-7,8.035443 z" transform="matrix(-0.3,0,0,-0.3,0.69,0)"/></marker><marker style="overflow:visible" id="Arrow1Mend" orient="auto" refX="0" refY="0"><path style="fill:#000;fill-opacity:1;fill-rule:evenodd;stroke:#000;stroke-width:1.00000003pt;stroke-opacity:1" id="path920" d="M 0,0 5,-5 -12.5,0 5,5 Z" transform="matrix(-0.4,0,0,-0.4,-4,0)"/></marker><marker style="overflow:visible" id="Arrow2Mend" orient="auto" refX="0" refY="0"><path style="fill:#000;fill-opacity:1;fill-rule:evenodd;stroke:#000;stroke-width:.625;stroke-linejoin:round;stroke-opacity:1" id="path938" d="M 8.7185878,4.0337352 -2.2072895,0.01601326 8.7185884,-4.0017078 c -1.7454984,2.3720609 -1.7354408,5.6174519 -6e-7,8.035443 z" transform="scale(-0.6)"/></marker><marker style="overflow:visible" id="marker1174" orient="auto" refX="0" refY="0"><path style="fill:#000;fill-opacity:1;fill-rule:evenodd;stroke:#000;stroke-width:1.00000003pt;stroke-opacity:1" id="path914" d="M 0,0 5,-5 -12.5,0 5,5 Z" transform="matrix(-0.8,0,0,-0.8,-10,0)"/></marker><marker style="overflow:visible" id="marker1352" orient="auto" refX="0" refY="0"><path style="fill:#000;fill-opacity:1;fill-rule:evenodd;stroke:#000;stroke-width:1.00000003pt;stroke-opacity:1" id="path1350" d="M 0,0 5,-5 -12.5,0 5,5 Z" transform="matrix(-0.4,0,0,-0.4,-4,0)"/></marker><marker style="overflow:visible" id="Arrow1Lend" orient="auto" refX="0" refY="0"><path style="fill:#000;fill-opacity:1;fill-rule:evenodd;stroke:#000;stroke-width:1.00000003pt;stroke-opacity:1" id="path981" d="M 0,0 5,-5 -12.5,0 5,5 Z" transform="matrix(-0.8,0,0,-0.8,-10,0)"/></marker></defs><metadata id="metadata5"/><g id="layer1" transform="translate(-26.193158,-137.06249)"><path id="path1190" d="m 162.39378,185.14085 -17.50616,0.13364" style="fill:none;stroke:#000;stroke-width:1;stroke-linecap:butt;stroke-linejoin:miter;stroke-miterlimit:4;stroke-dasharray:none;stroke-opacity:1;marker-end:url(#marker1194)"/><path id="path819" d="M 28.597838,171.53483 66.577654,145.04088" style="fill:none;stroke:#000;stroke-width:.80000001;stroke-linecap:round;stroke-linejoin:round;stroke-miterlimit:4;stroke-dasharray:none;stroke-opacity:1"/><path id="path821" d="M 100.22607,169.93122 66.577654,145.04088" style="fill:none;stroke:#000;stroke-width:.80000001;stroke-linecap:round;stroke-linejoin:round;stroke-miterlimit:4;stroke-dasharray:none;stroke-opacity:1"/><path id="path823" d="m 28.999438,171.81831 37.283404,8.53642" style="fill:none;fill-opacity:1;stroke:#0000f6;stroke-width:1.39999998;stroke-linecap:round;stroke-linejoin:round;stroke-miterlimit:4;stroke-dasharray:11.2,1.4;stroke-dashoffset:0;stroke-opacity:1"/><path id="path825" d="M 100.22607,169.93122 66.282842,180.35473" style="fill:none;fill-opacity:1;stroke:#0000f6;stroke-width:1.39999998;stroke-linecap:round;stroke-linejoin:round;stroke-miterlimit:4;stroke-dasharray:none;stroke-opacity:1"/><path id="path833" d="m 122.94398,157.63682 -22.71791,12.2944" style="fill:none;stroke:#000;stroke-width:.80000001;stroke-linecap:round;stroke-linejoin:round;stroke-miterlimit:4;stroke-dasharray:none;stroke-opacity:1"/><path id="path835" d="m 122.94398,175.81115 -22.71791,-5.87993" style="fill:none;fill-opacity:1;stroke:#0000f6;stroke-width:1.39999998;stroke-linecap:round;stroke-linejoin:round;stroke-miterlimit:4;stroke-dasharray:none;stroke-opacity:1"/><path id="path837" d="m 122.94398,157.63682 42.22859,1.60361" style="fill:none;stroke:#000;stroke-width:.80000001;stroke-linecap:round;stroke-linejoin:round;stroke-miterlimit:4;stroke-dasharray:4.79999998,.8;stroke-dashoffset:0;stroke-opacity:1"/><path id="path839" d="M 163.03441,175.81115 H 122.94398" style="fill:none;fill-opacity:1;stroke:#0000f6;stroke-width:1.39999998;stroke-linecap:round;stroke-linejoin:round;stroke-miterlimit:4;stroke-dasharray:none;stroke-opacity:1"/><path id="path847" d="m 122.94398,157.63682 5.61266,-8.8199 5.07812,2.13816 6.41447,-8.81989 c 3.37427,4.22138 7.25744,3.25927 4.54358,9.08716 6.50694,2.90434 6.57881,3.6835 7.61718,-2.80633 -0.57366,-2.99981 -2.54965,1.73178 -9.75533,-7.34991 l 17.10525,-1.60362 6.41447,9.35443 -0.80181,10.42351" style="fill:none;stroke:#000;stroke-width:.80000001;stroke-linecap:round;stroke-linejoin:round;stroke-miterlimit:4;stroke-dasharray:.8,.8;stroke-dashoffset:0;stroke-opacity:1"/><path id="path889" d="m 28.597838,171.53483 30.095364,-1.77153 5.746296,-9.6217 2.138156,-15.10072" style="fill:none;stroke:#000;stroke-width:.80000001;stroke-linecap:butt;stroke-linejoin:miter;stroke-miterlimit:4;stroke-dasharray:4.8,1.6;stroke-dashoffset:0;stroke-opacity:1"/><circle id="path906-6" cx="162.393" cy="184.968" r="2" style="fill:red;fill-opacity:1;stroke:none;stroke-width:2.79999995;stroke-linecap:round;stroke-linejoin:round;stroke-miterlimit:4;stroke-dasharray:none;stroke-opacity:1"/><path id="path909" d="m 30.289915,185.15726 17.575892,-0.37798" style="fill:none;stroke:#000;stroke-width:1;stroke-linecap:butt;stroke-linejoin:miter;stroke-miterlimit:4;stroke-dasharray:2,1;stroke-opacity:1;marker-end:url(#Arrow2Mend);stroke-dashoffset:0"/><circle id="path906" cx="30.29" cy="185.157" r="2" style="fill:red;fill-opacity:1;stroke:none;stroke-width:2.79999995;stroke-linecap:round;stroke-linejoin:round;stroke-miterlimit:4;stroke-dasharray:none;stroke-opacity:1"/><path id="path1180" d="m 99.08158,182.51143 19.0878,7.74851" style="fill:none;stroke:#000;stroke-width:1;stroke-linecap:butt;stroke-linejoin:miter;stroke-miterlimit:4;stroke-dasharray:none;stroke-opacity:1;marker-end:url(#marker1188)"/><circle id="path906-3" cx="98.893" cy="182.511" r="2" style="fill:red;fill-opacity:1;stroke:none;stroke-width:2.79999995;stroke-linecap:round;stroke-linejoin:round;stroke-miterlimit:4;stroke-dasharray:none;stroke-opacity:1"/><path id="path823-7" d="m 42.750452,224.6318 23.865249,6.26856" style="fill:none;fill-opacity:1;stroke:#0000f6;stroke-width:1.39999998;stroke-linecap:round;stroke-linejoin:round;stroke-miterlimit:4;stroke-dasharray:11.20000012,1.40000002;stroke-dashoffset:0;stroke-opacity:1;marker-end:url(#Arrow1Send)"/><path id="path889-5" d="m 41.713667,209.43947 24.047746,-1.58254" style="fill:none;stroke:#000;stroke-width:.80000001;stroke-linecap:butt;stroke-linejoin:miter;stroke-miterlimit:4;stroke-dasharray:4.80000005,1.60000002;stroke-dashoffset:0;stroke-opacity:1;marker-end:url(#marker1326)"/><path id="path819-3" d="M 41.744817,256.22755 66.873443,238.61604" style="fill:none;stroke:#000;stroke-width:.80000001;stroke-linecap:round;stroke-linejoin:round;stroke-miterlimit:4;stroke-dasharray:none;stroke-opacity:1;marker-end:url(#marker1330)"/><text id="text1290" x="73.488" y="200.228" xml:space="preserve" style="font-style:normal;font-weight:400;font-size:10.58333302px;line-height:1.25;font-family:sans-serif;letter-spacing:0;word-spacing:0;fill:#000;fill-opacity:1;stroke:none;stroke-width:.26458332"><tspan style="font-size:5.64444447px;stroke-width:.26458332" id="tspan1288" x="73.488" y="200.228">Sorted candidates</tspan></text><path id="path835-5" d="M 112.66022,220.10755 89.942312,214.22762" style="fill:none;fill-opacity:1;stroke:#0000f6;stroke-width:1.39999998;stroke-linecap:round;stroke-linejoin:round;stroke-miterlimit:4;stroke-dasharray:none;stroke-opacity:1;marker-start:url(#Arrow1Sstart)"/><path id="path833-6" d="m 114.93201,230.79833 -22.717907,12.2944" style="fill:none;stroke:#000;stroke-width:.80000001;stroke-linecap:round;stroke-linejoin:round;stroke-miterlimit:4;stroke-dasharray:none;stroke-opacity:1;marker-start:url(#marker1348)"/><path id="path839-2" d="M 160.47385,220.93084 H 133.23461" style="fill:none;fill-opacity:1;stroke:#0000f6;stroke-width:1.39999998;stroke-linecap:round;stroke-linejoin:round;stroke-miterlimit:4;stroke-dasharray:none;stroke-opacity:1;marker-end:url(#marker1401)"/><path id="path847-9" d="M 148.47051,232.42059 147.6687,242.8441" style="fill:none;stroke:#000;stroke-width:.80000001;stroke-linecap:round;stroke-linejoin:round;stroke-miterlimit:4;stroke-dasharray:.80000001,.80000001;stroke-dashoffset:0;stroke-opacity:1;marker-start:url(#marker1395)"/><path id="path1409" d="m 39.085893,258.3595 -8.547252,-1.9e-4 0.128262,-55.59181 h 8.566434" style="fill:none;stroke:#000;stroke-width:1;stroke-linecap:butt;stroke-linejoin:round;stroke-miterlimit:4;stroke-dasharray:none;stroke-opacity:1"/><text id="text1446" x="33.072" y="213.715" xml:space="preserve" style="font-style:normal;font-weight:400;font-size:10.58333302px;line-height:1.25;font-family:sans-serif;letter-spacing:0;word-spacing:0;fill:#000;fill-opacity:1;stroke:none;stroke-width:.26458332"><tspan style="stroke-width:.26458332" id="tspan1444" x="33.072" y="213.715">1</tspan></text><text id="text1450" x="33.741" y="230.553" xml:space="preserve" style="font-style:normal;font-weight:400;font-size:10.58333302px;line-height:1.25;font-family:sans-serif;letter-spacing:0;word-spacing:0;fill:#000;fill-opacity:1;stroke:none;stroke-width:.26458332"><tspan style="stroke-width:.26458332" id="tspan1448" x="33.741" y="230.553">2</tspan></text><text id="text1454" x="33.741" y="256.745" xml:space="preserve" style="font-style:normal;font-weight:400;font-size:10.58333302px;line-height:1.25;font-family:sans-serif;letter-spacing:0;word-spacing:0;fill:#000;fill-opacity:1;stroke:none;stroke-width:.26458332"><tspan style="stroke-width:.26458332" id="tspan1452" x="33.741" y="256.745">3</tspan></text><text id="text1557" x="79.261" y="217.759" xml:space="preserve" style="font-style:normal;font-weight:400;font-size:10.58333302px;line-height:1.25;font-family:sans-serif;letter-spacing:0;word-spacing:0;fill:#000;fill-opacity:1;stroke:none;stroke-width:.26458332"><tspan style="stroke-width:.26458332" id="tspan1555" x="79.261" y="217.759">1</tspan></text><text id="text1561" x="80.395" y="245.54" xml:space="preserve" style="font-style:normal;font-weight:400;font-size:10.58333302px;line-height:1.25;font-family:sans-serif;letter-spacing:0;word-spacing:0;fill:#000;fill-opacity:1;stroke:none;stroke-width:.26458332"><tspan style="stroke-width:.26458332" id="tspan1559" x="80.395" y="245.54">2</tspan></text><text id="text1589" x="124.845" y="216.625" xml:space="preserve" style="font-style:normal;font-weight:400;font-size:10.58333302px;line-height:1.25;font-family:sans-serif;letter-spacing:0;word-spacing:0;fill:#000;fill-opacity:1;stroke:none;stroke-width:.26458332"><tspan style="stroke-width:.26458332" id="tspan1587" x="124.845" y="216.625">1</tspan></text><text id="text1593" x="126.735" y="240.626" xml:space="preserve" style="font-style:normal;font-weight:400;font-size:10.58333302px;line-height:1.25;font-family:sans-serif;letter-spacing:0;word-spacing:0;fill:#000;fill-opacity:1;stroke:none;stroke-width:.26458332"><tspan style="stroke-width:.26458332" id="tspan1591" x="126.735" y="240.626">2</tspan></text><path id="path1409-3" d="m 63.663438,258.3595 h 8.544149 l -0.128417,-55.59195 -8.563119,-0.037" style="fill:none;stroke:#000;stroke-width:.99980652;stroke-linecap:butt;stroke-linejoin:round;stroke-miterlimit:4;stroke-dasharray:none;stroke-opacity:1"/><path id="path1409-5" d="m 85.187035,258.3595 -8.547252,-2e-4 0.128262,-55.59205 8.566434,-0.037" style="fill:none;stroke:#000;stroke-width:1;stroke-linecap:butt;stroke-linejoin:round;stroke-miterlimit:4;stroke-dasharray:none;stroke-opacity:1"/><path id="path1409-3-3" d="m 109.76455,258.3595 8.54415,10e-5 -0.12842,-55.59205 -8.56312,-0.037" style="fill:none;stroke:#000;stroke-width:.99980658;stroke-linecap:butt;stroke-linejoin:round;stroke-miterlimit:4;stroke-dasharray:none;stroke-opacity:1"/><path id="path1409-5-5" d="m 130.53693,258.3595 -8.54725,-2e-4 0.12826,-55.59205 8.56644,-0.037" style="fill:none;stroke:#000;stroke-width:1;stroke-linecap:butt;stroke-linejoin:round;stroke-miterlimit:4;stroke-dasharray:none;stroke-opacity:1"/><path id="path1409-3-3-6" d="m 155.11445,258.3595 8.54415,10e-5 -0.12842,-55.59205 -8.56312,-0.037" style="fill:none;stroke:#000;stroke-width:.99980664;stroke-linecap:butt;stroke-linejoin:round;stroke-miterlimit:4;stroke-dasharray:none;stroke-opacity:1"/></g></svg>