<svg xmlns="http://www.w3.org/2000/svg" xmlns:svg="http://www.w3.org/2000/svg" id="svg8" width="778.029" height="252.925" version="1.1" viewBox="0 0 205.853 66.92"><defs id="defs2"><marker style="overflow:visible" id="EmptyDiamondSend" orient="auto" refX="0" refY="0"><path style="fill:none;fill-opacity:1;fill-rule:evenodd;stroke:#000;stroke-width:1.00000003pt;stroke-opacity:1" id="path1047" d="M 0,-7.0710768 -7.0710894,0 0,7.0710589 7.0710462,0 Z" transform="matrix(0.2,0,0,0.2,-1.2,0)"/></marker><marker style="overflow:visible" id="CurvyCross" orient="auto" refX="0" refY="0"><g style="fill:#000;fill-opacity:1;stroke:#000;stroke-opacity:1" id="g1111" transform="scale(0.6)"><path style="fill:#000;fill-opacity:1;fill-rule:evenodd;stroke:#000;stroke-width:1.00000003pt;stroke-opacity:1" id="path1107" d="m 4.625493,-5.0456926 c -2.76,0 -5.00000002,2.24 -5.00000002,5.00000002 0,2.75999998 2.24000002,4.99999998 5.00000002,4.99999998"/><path style="fill:#000;fill-opacity:1;fill-rule:evenodd;stroke:#000;stroke-width:1.00000003pt;stroke-opacity:1" id="path1109" d="m -5.4129913,-5.0456926 c 2.76,0 4.99999999,2.24 4.99999999,5.00000002 0,2.75999998 -2.23999999,4.99999998 -4.99999999,4.99999998"/></g></marker><marker style="overflow:visible" id="SemiCircleOut" orient="auto" refX="0" refY="0"><path style="fill:#000;fill-opacity:1;fill-rule:evenodd;stroke:#000;stroke-width:1.00000003pt;stroke-opacity:1" id="path1098" d="m -2.5,-0.80913858 c 0,2.75999998 -2.24,4.99999998 -5,4.99999998 v -10 c 2.76,0 5,2.24 5,5.00000002 z" transform="matrix(0.6,0,0,0.6,4.2752958,0.4580676)"/></marker><marker style="overflow:visible" id="marker1181" orient="auto" refX="0" refY="0"><path style="fill:#000;fill-opacity:1;fill-rule:evenodd;stroke:#000;stroke-width:1.00000003pt;stroke-opacity:1" id="path1179" d="M 0,0 5,-5 -12.5,0 5,5 Z" transform="matrix(-0.4,0,0,-0.4,-4,0)"/></marker><marker style="overflow:visible" id="marker1401" orient="auto" refX="0" refY="0"><path style="fill:#0000f6;fill-opacity:1;fill-rule:evenodd;stroke:#0000f6;stroke-width:1.00000003pt;stroke-opacity:1" id="path1399" d="M 0,0 5,-5 -12.5,0 5,5 Z" transform="matrix(-0.2,0,0,-0.2,-1.2,0)"/></marker><marker style="overflow:visible" id="marker1395" orient="auto" refX="0" refY="0"><path style="fill:#000;fill-opacity:1;fill-rule:evenodd;stroke:#000;stroke-width:1.00000003pt;stroke-opacity:1" id="path1393" d="M 0,0 5,-5 -12.5,0 5,5 Z" transform="matrix(0.2,0,0,0.2,1.2,0)"/></marker><marker style="overflow:visible" id="marker1348" orient="auto" refX="0" refY="0"><path style="fill:#000;fill-opacity:1;fill-rule:evenodd;stroke:#000;stroke-width:1.00000003pt;stroke-opacity:1" id="path1346" d="M 0,0 5,-5 -12.5,0 5,5 Z" transform="matrix(0.2,0,0,0.2,1.2,0)"/></marker><marker style="overflow:visible" id="Arrow1Sstart" orient="auto" refX="0" refY="0"><path style="fill:#0000f6;fill-opacity:1;fill-rule:evenodd;stroke:#0000f6;stroke-width:1.00000003pt;stroke-opacity:1" id="path923" d="M 0,0 5,-5 -12.5,0 5,5 Z" transform="matrix(0.2,0,0,0.2,1.2,0)"/></marker><marker style="overflow:visible" id="marker1330" orient="auto" refX="0" refY="0"><path style="fill:#000;fill-opacity:1;fill-rule:evenodd;stroke:#000;stroke-width:1.00000003pt;stroke-opacity:1" id="path1328" d="M 0,0 5,-5 -12.5,0 5,5 Z" transform="matrix(-0.2,0,0,-0.2,-1.2,0)"/></marker><marker style="overflow:visible" id="marker1326" orient="auto" refX="0" refY="0"><path style="fill:#000;fill-opacity:1;fill-rule:evenodd;stroke:#000;stroke-width:1.00000003pt;stroke-opacity:1" id="path1324" d="M 0,0 5,-5 -12.5,0 5,5 Z" transform="matrix(-0.2,0,0,-0.2,-1.2,0)"/></marker><marker style="overflow:visible" id="Arrow1Send" orient="auto" refX="0" refY="0"><path style="fill:#0000f6;fill-opacity:1;fill-rule:evenodd;stroke:#0000f6;stroke-width:1.00000003pt;stroke-opacity:1" id="path926" d="M 0,0 5,-5 -12.5,0 5,5 Z" transform="matrix(-0.2,0,0,-0.2,-1.2,0)"/></marker><marker style="overflow:visible" id="marker1194" orient="auto" refX="0" refY="0"><path style="fill:#000;fill-opacity:1;fill-rule:evenodd;stroke:#000;stroke-width:1.00000003pt;stroke-opacity:1" id="path1192" d="M 0,0 5,-5 -12.5,0 5,5 Z" transform="matrix(-0.4,0,0,-0.4,-4,0)"/></marker><marker style="overflow:visible" id="marker1188" orient="auto" refX="0" refY="0"><path style="fill:#000;fill-opacity:1;fill-rule:evenodd;stroke:#000;stroke-width:1.00000003pt;stroke-opacity:1" id="path1186" d="M 0,0 5,-5 -12.5,0 5,5 Z" transform="matrix(-0.4,0,0,-0.4,-4,0)"/></marker><marker style="overflow:visible" id="Arrow2Send" orient="auto" refX="0" refY="0"><path style="fill:#000;fill-opacity:1;fill-rule:evenodd;stroke:#000;stroke-width:.625;stroke-linejoin:round;stroke-opacity:1" id="path944" d="M 8.7185878,4.0337352 -2.2072895,0.01601326 8.7185884,-4.0017078 c -1.7454984,2.3720609 -1.7354408,5.6174519 -6e-7,8.035443 z" transform="matrix(-0.3,0,0,-0.3,0.69,0)"/></marker><marker style="overflow:visible" id="Arrow1Mend" orient="auto" refX="0" refY="0"><path style="fill:none;fill-opacity:1;fill-rule:evenodd;stroke:#000;stroke-width:1.00000003pt;stroke-opacity:1" id="path920" d="M 0,0 5,-5 -12.5,0 5,5 Z" transform="matrix(-0.4,0,0,-0.4,-4,0)"/></marker><marker style="overflow:visible" id="Arrow2Mend" orient="auto" refX="0" refY="0"><path style="fill:#000;fill-opacity:1;fill-rule:evenodd;stroke:#000;stroke-width:.625;stroke-linejoin:round;stroke-opacity:1" id="path938" d="M 8.7185878,4.0337352 -2.2072895,0.01601326 8.7185884,-4.0017078 c -1.7454984,2.3720609 -1.7354408,5.6174519 -6e-7,8.035443 z" transform="scale(-0.6)"/></marker><marker style="overflow:visible" id="marker1174" orient="auto" refX="0" refY="0"><path style="fill:#000;fill-opacity:1;fill-rule:evenodd;stroke:#000;stroke-width:1.00000003pt;stroke-opacity:1" id="path914" d="M 0,0 5,-5 -12.5,0 5,5 Z" transform="matrix(-0.8,0,0,-0.8,-10,0)"/></marker><marker style="overflow:visible" id="marker1352" orient="auto" refX="0" refY="0"><path style="fill:#000;fill-opacity:1;fill-rule:evenodd;stroke:#000;stroke-width:1.00000003pt;stroke-opacity:1" id="path1350" d="M 0,0 5,-5 -12.5,0 5,5 Z" transform="matrix(-0.4,0,0,-0.4,-4,0)"/></marker><marker style="overflow:visible" id="Arrow1Lend" orient="auto" refX="0" refY="0"><path style="fill:#000;fill-opacity:1;fill-rule:evenodd;stroke:#000;stroke-width:1.00000003pt;stroke-opacity:1" id="path981" d="M 0,0 5,-5 -12.5,0 5,5 Z" transform="matrix(-0.8,0,0,-0.8,-10,0)"/></marker><marker style="overflow:visible" id="EmptyDiamondSend-3" orient="auto" refX="0" refY="0"><path style="fill:#fff;fill-rule:evenodd;stroke:#000;stroke-width:1.00000003pt;stroke-opacity:1" id="path1047-6" d="M 0,-7.0710768 -7.0710894,0 0,7.0710589 7.0710462,0 Z" transform="matrix(0.2,0,0,0.2,-1.2,0)"/></marker><marker style="overflow:visible" id="Arrow1Mend-7" orient="auto" refX="0" refY="0"><path style="fill:#000;fill-opacity:1;fill-rule:evenodd;stroke:#000;stroke-width:1.00000003pt;stroke-opacity:1" id="path920-5" d="M 0,0 5,-5 -12.5,0 5,5 Z" transform="matrix(-0.4,0,0,-0.4,-4,0)"/></marker></defs><metadata id="metadata5"/><g id="layer1" transform="translate(5.8280389,-193.93974)"><path id="path823-7" d="m 8.8837649,224.6318 23.8652481,6.26856" style="fill:none;fill-opacity:1;stroke:#0000f6;stroke-width:1.39999998;stroke-linecap:round;stroke-linejoin:round;stroke-miterlimit:4;stroke-dasharray:11.20000012,1.40000002;stroke-dashoffset:0;stroke-opacity:1;marker-end:url(#Arrow1Send)"/><path id="path889-5" d="M 7.8469805,209.43947 31.894725,207.85693" style="fill:none;stroke:#000;stroke-width:.80000001;stroke-linecap:butt;stroke-linejoin:miter;stroke-miterlimit:4;stroke-dasharray:4.80000005,1.60000002;stroke-dashoffset:0;stroke-opacity:1;marker-end:url(#marker1326)"/><path id="path819-3" d="M 7.8781305,256.22755 33.006755,238.61604" style="fill:none;stroke:#000;stroke-width:.80000001;stroke-linecap:round;stroke-linejoin:round;stroke-miterlimit:4;stroke-dasharray:none;stroke-opacity:1;marker-end:url(#marker1330)"/><text id="text1290" x="73.488" y="200.228" xml:space="preserve" style="font-style:normal;font-weight:400;font-size:10.58333302px;line-height:1.25;font-family:sans-serif;letter-spacing:0;word-spacing:0;fill:#000;fill-opacity:1;stroke:none;stroke-width:.26458332"><tspan style="font-size:5.64444447px;stroke-width:.26458332" id="tspan1288" x="73.488" y="200.228">Sorted candidates</tspan></text><path id="path835-5" d="M 112.66022,220.10755 89.942312,214.22762" style="fill:none;fill-opacity:1;stroke:#0000f6;stroke-width:1.39999998;stroke-linecap:round;stroke-linejoin:round;stroke-miterlimit:4;stroke-dasharray:none;stroke-opacity:1;marker-start:url(#Arrow1Sstart)"/><path id="path833-6" d="m 114.93201,230.79833 -22.717907,12.2944" style="fill:none;stroke:#000;stroke-width:.80000001;stroke-linecap:round;stroke-linejoin:round;stroke-miterlimit:4;stroke-dasharray:none;stroke-opacity:1;marker-start:url(#marker1348)"/><path id="path839-2" d="M 194.34073,220.93084 H 167.10149" style="fill:none;fill-opacity:1;stroke:#0000f6;stroke-width:1.39999998;stroke-linecap:round;stroke-linejoin:round;stroke-miterlimit:4;stroke-dasharray:none;stroke-opacity:1;marker-end:url(#marker1401)"/><path id="path847-9" d="m 182.33739,232.42059 -0.80181,10.42351" style="fill:none;stroke:#000;stroke-width:.80000001;stroke-linecap:round;stroke-linejoin:round;stroke-miterlimit:4;stroke-dasharray:.80000001,.80000001;stroke-dashoffset:0;stroke-opacity:1;marker-start:url(#marker1395)"/><path id="path1409" d="m 5.219208,258.3595 -8.547247,-1.9e-4 0.1282616,-55.59181 h 8.5664291" style="fill:none;stroke:#000;stroke-width:1;stroke-linecap:butt;stroke-linejoin:round;stroke-miterlimit:4;stroke-dasharray:none;stroke-opacity:1"/><text id="text1446" x="-.794" y="213.715" xml:space="preserve" style="font-style:normal;font-weight:400;font-size:10.58333302px;line-height:1.25;font-family:sans-serif;letter-spacing:0;word-spacing:0;fill:#000;fill-opacity:1;stroke:none;stroke-width:.26458332"><tspan style="stroke-width:.26458332" id="tspan1444" x="-.794" y="213.715">1</tspan></text><text id="text1450" x="-.126" y="230.553" xml:space="preserve" style="font-style:normal;font-weight:400;font-size:10.58333302px;line-height:1.25;font-family:sans-serif;letter-spacing:0;word-spacing:0;fill:#000;fill-opacity:1;stroke:none;stroke-width:.26458332"><tspan style="stroke-width:.26458332" id="tspan1448" x="-.126" y="230.553">2</tspan></text><text id="text1454" x="-.126" y="256.745" xml:space="preserve" style="font-style:normal;font-weight:400;font-size:10.58333302px;line-height:1.25;font-family:sans-serif;letter-spacing:0;word-spacing:0;fill:#000;fill-opacity:1;stroke:none;stroke-width:.26458332"><tspan style="stroke-width:.26458332" id="tspan1452" x="-.126" y="256.745">3</tspan></text><text id="text1557" x="79.261" y="217.759" xml:space="preserve" style="font-style:normal;font-weight:400;font-size:10.58333302px;line-height:1.25;font-family:sans-serif;letter-spacing:0;word-spacing:0;fill:#000;fill-opacity:1;stroke:none;stroke-width:.26458332"><tspan style="stroke-width:.26458332" id="tspan1555" x="79.261" y="217.759">1</tspan></text><text id="text1561" x="80.395" y="245.54" xml:space="preserve" style="font-style:normal;font-weight:400;font-size:10.58333302px;line-height:1.25;font-family:sans-serif;letter-spacing:0;word-spacing:0;fill:#000;fill-opacity:1;stroke:none;stroke-width:.26458332"><tspan style="stroke-width:.26458332" id="tspan1559" x="80.395" y="245.54">2</tspan></text><text id="text1589" x="158.711" y="216.625" xml:space="preserve" style="font-style:normal;font-weight:400;font-size:10.58333302px;line-height:1.25;font-family:sans-serif;letter-spacing:0;word-spacing:0;fill:#000;fill-opacity:1;stroke:none;stroke-width:.26458332"><tspan style="stroke-width:.26458332" id="tspan1587" x="158.711" y="216.625">1</tspan></text><text id="text1593" x="160.601" y="240.626" xml:space="preserve" style="font-style:normal;font-weight:400;font-size:10.58333302px;line-height:1.25;font-family:sans-serif;letter-spacing:0;word-spacing:0;fill:#000;fill-opacity:1;stroke:none;stroke-width:.26458332"><tspan style="stroke-width:.26458332" id="tspan1591" x="160.601" y="240.626">2</tspan></text><path id="path1409-3" d="m 29.79675,258.3595 h 8.544149 l -0.128417,-55.59195 -8.563119,-0.037" style="fill:none;stroke:#000;stroke-width:.99980652;stroke-linecap:butt;stroke-linejoin:round;stroke-miterlimit:4;stroke-dasharray:none;stroke-opacity:1"/><path id="path1409-5" d="m 85.187035,258.3595 -8.547252,-2e-4 0.128262,-55.59205 8.566434,-0.037" style="fill:none;stroke:#000;stroke-width:1;stroke-linecap:butt;stroke-linejoin:round;stroke-miterlimit:4;stroke-dasharray:none;stroke-opacity:1"/><path id="path1409-3-3" d="m 109.76455,258.3595 8.54415,10e-5 -0.12842,-55.59205 -8.56312,-0.037" style="fill:none;stroke:#000;stroke-width:.99980658;stroke-linecap:butt;stroke-linejoin:round;stroke-miterlimit:4;stroke-dasharray:none;stroke-opacity:1"/><path id="path1409-5-5" d="m 164.40381,258.3595 -8.54725,-2e-4 0.12826,-55.59205 8.56644,-0.037" style="fill:none;stroke:#000;stroke-width:1;stroke-linecap:butt;stroke-linejoin:round;stroke-miterlimit:4;stroke-dasharray:none;stroke-opacity:1"/><path id="path1409-3-3-6" d="m 188.98133,258.3595 8.54415,10e-5 -0.12842,-55.59205 -8.56312,-0.037" style="fill:none;stroke:#000;stroke-width:.99980664;stroke-linecap:butt;stroke-linejoin:round;stroke-miterlimit:4;stroke-dasharray:none;stroke-opacity:1"/><text id="text899" x="56.683" y="203.108" xml:space="preserve" style="font-style:normal;font-weight:400;font-size:10.58333302px;line-height:3px;font-family:sans-serif;text-align:center;letter-spacing:0;word-spacing:0;text-anchor:middle;fill:red;fill-opacity:1;stroke:red;stroke-width:.26458332;stroke-opacity:1"><tspan style="font-size:4.23333311px;line-height:3px;text-align:center;text-anchor:middle;fill:red;fill-opacity:1;stroke:red;stroke-width:.26458332;stroke-opacity:1" id="tspan897" x="56.683" y="203.108">Inproper</tspan><tspan id="tspan901" x="56.683" y="207.758" style="font-size:4.23333311px;line-height:3px;text-align:center;text-anchor:middle;fill:red;fill-opacity:1;stroke:red;stroke-width:.26458332;stroke-opacity:1">route</tspan><tspan id="tspan903" x="56.683" y="212.407" style="font-size:4.23333311px;line-height:3px;text-align:center;text-anchor:middle;fill:red;fill-opacity:1;stroke:red;stroke-width:.26458332;stroke-opacity:1">length</tspan></text><path id="path915" d="m 39.800301,212.17961 5.102678,-1e-5 v -14.1741 l 23.245536,0.18898 -0.188988,13.98513 6.236607,-1e-5" style="fill:none;fill-opacity:1;stroke:#000;stroke-width:.69999999;stroke-linecap:butt;stroke-linejoin:miter;stroke-miterlimit:4;stroke-dasharray:none;stroke-opacity:1;marker-start:url(#EmptyDiamondSend);marker-end:url(#Arrow1Mend)"/><path id="path915-3" d="m 40.847487,230.83863 c 4.698228,-0.21666 -4.816432,-12.61302 34.206846,-10.96132" style="fill:none;stroke:#000;stroke-width:.69999999;stroke-linecap:butt;stroke-linejoin:miter;stroke-miterlimit:4;stroke-dasharray:none;stroke-opacity:1;marker-start:url(#EmptyDiamondSend-3);marker-end:url(#Arrow1Mend-7)"/><text id="text44158" x="61.058" y="225.938" xml:space="preserve" style="font-style:normal;font-variant:normal;font-weight:700;font-stretch:normal;font-size:10.58333302px;line-height:3px;font-family:sans-serif;-inkscape-font-specification:'sans-serif Bold';text-align:center;letter-spacing:0;word-spacing:0;text-anchor:middle;fill:#00b000;fill-opacity:1;stroke:none;stroke-width:.26458332;stroke-opacity:1"><tspan style="font-style:normal;font-variant:normal;font-weight:700;font-stretch:normal;font-size:4.23333311px;line-height:3px;font-family:sans-serif;-inkscape-font-specification:'sans-serif Bold';text-align:center;text-anchor:middle;fill:#00b000;fill-opacity:1;stroke:none;stroke-width:.26458332;stroke-opacity:1" id="tspan44156" x="61.058" y="225.938">next best</tspan><tspan id="tspan44160" x="61.058" y="230.588" style="font-style:normal;font-variant:normal;font-weight:700;font-stretch:normal;font-size:4.23333311px;line-height:3px;font-family:sans-serif;-inkscape-font-specification:'sans-serif Bold';text-align:center;text-anchor:middle;fill:#00b000;fill-opacity:1;stroke:none;stroke-width:.26458332;stroke-opacity:1">candidate</tspan><tspan id="tspan44168" x="61.058" y="235.237" style="font-style:normal;font-variant:normal;font-weight:700;font-stretch:normal;font-size:4.23333311px;line-height:3px;font-family:sans-serif;-inkscape-font-specification:'sans-serif Bold';text-align:center;text-anchor:middle;fill:#00b000;fill-opacity:1;stroke:none;stroke-width:.26458332;stroke-opacity:1">pair</tspan></text></g></svg>